<?xml version="1.0" encoding="utf-8"?>
<!-- Generator: Adobe Illustrator 26.0.2, SVG Export Plug-In . SVG Version: 6.00 Build 0)  -->
<svg version="1.1" id="Layer_1" xmlns="http://www.w3.org/2000/svg" xmlns:xlink="http://www.w3.org/1999/xlink" x="0px" y="0px"
	 viewBox="0 0 25 25" style="enable-background:new 0 0 25 25;" xml:space="preserve">
<style type="text/css">
	.st0{fill:#122078;}
</style>
<g>
	<g>
		<g>
			<path class="st0" d="M12.5,0C5.6,0,0,5.6,0,12.5S5.6,25,12.5,25S25,19.4,25,12.5S19.4,0,12.5,0z M12.5,22.7
				c-5.6,0-10.2-4.6-10.2-10.2S6.9,2.3,12.5,2.3s10.2,4.6,10.2,10.2S18.1,22.7,12.5,22.7z"/>
			<path class="st0" d="M12.5,9.8c-0.6,0-1.1,0.5-1.1,1.1v7.6c0,0.6,0.5,1.1,1.1,1.1s1.1-0.5,1.1-1.1V11
				C13.6,10.4,13.1,9.8,12.5,9.8z"/>
			<path class="st0" d="M12.5,5.3c-0.3,0-0.6,0.1-0.8,0.3c-0.2,0.2-0.3,0.5-0.3,0.8s0.1,0.6,0.3,0.8c0.2,0.2,0.5,0.3,0.8,0.3
				s0.6-0.1,0.8-0.3c0.2-0.2,0.3-0.5,0.3-0.8s-0.1-0.6-0.3-0.8C13.1,5.4,12.8,5.3,12.5,5.3z"/>
		</g>
	</g>
</g>
</svg>
