<svg width="423" height="98" viewBox="0 0 423 98" fill="none" xmlns="http://www.w3.org/2000/svg">
<path d="M313.242 23.2734V73.6734H321.594V30.9774H322.458L335.994 73.6734H351.114V23.2734H342.762V65.9694H341.898L328.29 23.2734H313.242Z" fill="black"/>
<path d="M358.116 55.6014C358.116 66.4734 365.748 74.6814 376.548 74.6814C385.548 74.6814 389.868 69.7854 392.46 65.7534L385.908 62.0094C384.324 65.1054 381.516 67.8414 376.404 67.8414C370.644 67.8414 366.684 64.0254 366.324 58.4814H393.18V55.0254C393.18 44.5134 386.268 37.0974 375.9 37.0974C365.532 37.0974 358.116 45.0174 358.116 55.6014ZM366.324 52.5774C366.972 47.2494 370.212 43.9374 375.828 43.9374C381.3 43.9374 384.684 47.2494 385.044 52.5774H366.324Z" fill="black"/>
<path d="M395.484 38.1774V45.0174H404.916V67.1934C404.916 71.0094 407.652 73.6734 411.396 73.6734H420.9V66.8334H414.78C413.484 66.8334 412.836 66.1854 412.836 64.7454V45.0174H422.916V38.1774H412.836V26.5134H404.916V38.1774H395.484Z" fill="black"/>
<path d="M11.7676 2.20605H84.057C89.5807 2.20605 93.9037 6.61605 93.9037 12.2511V85.996C93.9037 91.631 89.5807 96.0411 84.057 96.0411H11.7676C6.24385 96.0411 1.9209 91.631 1.9209 85.996V12.2511C1.9209 6.61605 6.48401 2.20605 11.7676 2.20605Z" fill="#152172"/>
<path d="M110.476 2.20605H182.765C188.289 2.20605 192.612 6.61605 192.612 12.2511V85.996C192.612 91.631 188.289 96.0411 182.765 96.0411H110.476C104.952 96.0411 100.629 91.631 100.629 85.996V12.2511C100.629 6.61605 104.952 2.20605 110.476 2.20605Z" fill="#152172"/>
<path d="M208.942 2.20605H281.232C286.756 2.20605 291.078 6.61605 291.078 12.2511V85.996C291.078 91.631 286.756 96.0411 281.232 96.0411H208.942C203.419 96.0411 199.096 91.631 199.096 85.996V12.2511C199.096 6.61605 203.419 2.20605 208.942 2.20605Z" fill="#152172"/>
<path d="M154.426 25.4804L169.316 74.7254H161.631C160.67 74.7254 159.949 74.2354 159.709 73.2554L156.587 62.9654H136.654L133.531 73.2554C133.291 74.2354 132.331 74.7254 131.61 74.7254H123.925L139.055 25.4804C139.535 24.2554 140.736 23.2754 141.937 23.2754H151.544C152.744 23.5204 153.945 24.2554 154.426 25.4804ZM154.426 55.1254L147.701 32.5854C147.461 31.6054 146.02 31.6054 145.78 32.5854L139.055 55.1254H154.426Z" fill="white"/>
<path d="M231.758 23.5195C232.479 23.5195 233.199 24.0095 233.439 24.4995L244.247 42.1395C244.727 42.8745 245.688 42.8745 245.928 42.1395L256.975 24.4995C257.456 24.0095 257.936 23.5195 258.656 23.5195H267.543L252.652 47.7745C252.172 48.5095 252.172 49.2445 252.652 49.9795L267.783 74.9695H258.897C258.176 74.9695 257.456 74.4795 257.215 73.9895L246.168 55.8595C245.688 55.1245 244.727 55.1245 244.487 55.8595L233.439 73.9895C232.959 74.4795 232.238 74.9695 231.758 74.9695H222.872L238.002 49.9795C238.483 49.2445 238.483 48.5095 238.002 47.7745L223.112 23.5195H231.758V23.5195Z" fill="white"/>
<path d="M46.3514 74.7254C57.1588 74.7254 63.403 69.0904 63.403 58.5554V23.2754H54.517V57.5754C54.517 57.8204 54.517 58.0654 54.517 58.3104V62.2304C54.517 64.4354 52.8358 66.1504 50.6743 66.1504H46.5915C46.3514 66.1504 46.3514 66.1504 46.1112 66.1504C45.871 66.1504 45.871 66.1504 45.6309 66.1504H41.7883C39.6268 66.1504 37.9456 64.4354 37.9456 62.2304V58.3104C37.9456 58.0654 37.9456 57.8204 37.9456 57.5754H29.0596C29.7801 68.1104 35.3038 74.7254 46.3514 74.7254Z" fill="white"/>
</svg>
