<?xml version="1.0" encoding="utf-8"?>
<!-- Generator: Adobe Illustrator 26.0.2, SVG Export Plug-In . SVG Version: 6.00 Build 0)  -->
<svg version="1.1" id="Layer_1" xmlns="http://www.w3.org/2000/svg" xmlns:xlink="http://www.w3.org/1999/xlink" x="0px" y="0px"
	 viewBox="0 0 588 98" style="enable-background:new 0 0 588 98;" xml:space="preserve">
<style type="text/css">
	.st0{fill:#152172;}
	.st1{fill:#FFFFFF;}
</style>
<path d="M313.2,23.3v50.4h8.4V31h0.9L336,73.7h15.1V23.3h-8.4V66h-0.9l-13.6-42.7H313.2z"/>
<path d="M358.1,55.6c0,10.9,7.6,19.1,18.4,19.1c9,0,13.3-4.9,15.9-8.9l-6.6-3.7c-1.6,3.1-4.4,5.8-9.5,5.8c-5.8,0-9.7-3.8-10.1-9.4
	h26.9V55c0-10.5-6.9-17.9-17.3-17.9C365.5,37.1,358.1,45,358.1,55.6z M366.3,52.6c0.6-5.3,3.9-8.6,9.5-8.6c5.5,0,8.9,3.3,9.2,8.6
	H366.3z"/>
<path d="M395.5,38.2V45h9.4v22.2c0,3.8,2.7,6.5,6.5,6.5h9.5v-6.8h-6.1c-1.3,0-1.9-0.6-1.9-2.1V45h10.1v-6.8h-10.1V26.5h-7.9v11.7
	H395.5z"/>
<path d="M426.3,38.2l7.5,35.5h11.5l6-28.1h0.9l6,28.1H470l7.4-35.5h-8.1l-4.9,28.1h-0.9l-6-28.1h-11.2l-6,28.1h-0.9l-4.9-28.1H426.3
	z"/>
<path d="M480.8,55.9c0,11.1,8,18.8,18.4,18.8s18.4-7.7,18.4-18.8s-8-18.7-18.4-18.7S480.8,44.8,480.8,55.9z M488.7,55.9
	c0-7.1,4.2-11.6,10.5-11.6c6.3,0,10.5,4.5,10.5,11.6s-4.2,11.7-10.5,11.7C493,67.6,488.7,63,488.7,55.9z"/>
<path d="M532.2,38.2h-7.7v35.5h7.9V53.3c0-5.2,3-7.8,7.8-7.8h5.8V38h-3.7c-4.8,0-7.8,1.7-9.1,5.6h-1V38.2z"/>
<path d="M587.7,38.2h-11.3l-16.1,13.5h-0.9V23.3h-7.9v50.4h7.9V61.8l6.4-5.3l12.1,17.2h9.3l-15.7-22L587.7,38.2z"/>
<path class="st0" d="M11.8,2.2h72.3c5.5,0,9.8,4.4,9.8,10V86c0,5.6-4.3,10-9.8,10H11.8c-5.5,0-9.8-4.4-9.8-10V12.3
	C1.9,6.6,6.5,2.2,11.8,2.2z"/>
<path class="st0" d="M110.5,2.2h72.3c5.5,0,9.8,4.4,9.8,10V86c0,5.6-4.3,10-9.8,10h-72.3c-5.5,0-9.8-4.4-9.8-10V12.3
	C100.6,6.6,105,2.2,110.5,2.2z"/>
<path class="st0" d="M208.9,2.2h72.3c5.5,0,9.8,4.4,9.8,10V86c0,5.6-4.3,10-9.8,10h-72.3c-5.5,0-9.8-4.4-9.8-10V12.3
	C199.1,6.6,203.4,2.2,208.9,2.2z"/>
<path class="st1" d="M154.4,25.5l14.9,49.2h-7.7c-1,0-1.7-0.5-1.9-1.5L156.6,63h-19.9l-3.1,10.3c-0.2,1-1.2,1.5-1.9,1.5h-7.7
	l15.1-49.2c0.5-1.2,1.7-2.2,2.9-2.2h9.6C152.7,23.5,153.9,24.3,154.4,25.5z M154.4,55.1l-6.7-22.5c-0.2-1-1.7-1-1.9,0l-6.7,22.5
	H154.4z"/>
<path class="st1" d="M231.8,23.5c0.7,0,1.4,0.5,1.7,1l10.8,17.6c0.5,0.7,1.4,0.7,1.7,0l11-17.6c0.5-0.5,1-1,1.7-1h8.9l-14.9,24.3
	c-0.5,0.7-0.5,1.5,0,2.2l15.1,25h-8.9c-0.7,0-1.4-0.5-1.7-1l-11-18.1c-0.5-0.7-1.4-0.7-1.7,0l-11,18.1c-0.5,0.5-1.2,1-1.7,1h-8.9
	L238,50c0.5-0.7,0.5-1.5,0-2.2l-14.9-24.3H231.8L231.8,23.5z"/>
<path class="st1" d="M46.4,74.7c10.8,0,17.1-5.6,17.1-16.2V23.3h-8.9v34.3c0,0.2,0,0.5,0,0.7v3.9c0,2.2-1.7,3.9-3.8,3.9h-4.1
	c-0.2,0-0.2,0-0.5,0s-0.2,0-0.5,0h-3.8c-2.2,0-3.8-1.7-3.8-3.9v-3.9c0-0.2,0-0.5,0-0.7h-8.9C29.8,68.1,35.3,74.7,46.4,74.7z"/>
</svg>
